<?xml version="1.0" encoding="UTF-8"?>
<svg width="20px" height="20px" viewBox="0 0 20 20" version="1.1" xmlns="http://www.w3.org/2000/svg" xmlns:xlink="http://www.w3.org/1999/xlink">
    <defs>
        <path d="M3.06929159,3.18849186 L1,1.11920027 L2.11920027,-1.77635684e-15 L4.22708329,2.10788302 C5.90077413,0.795591666 8.08705755,0 10.475934,0 C15.727504,0 20,3.84486543 20,8.57165936 C20,11.0451058 18.8300876,13.277059 16.9621681,14.8429678 L18.5341376,16.4149373 L17.4149373,17.5341376 L15.6475582,15.7667585 C14.1573614,16.6373118 12.3810737,17.1433187 10.475934,17.1433187 L0.951868085,17.1433187 C0.57281026,17.1433187 0.229943886,16.9185508 0.0794636437,16.5718748 C-0.071969005,16.2242464 -0.0033957301,15.820426 0.254706457,15.5432756 L2.45095607,13.1774977 C1.46712005,11.8022225 0.951868085,10.2240848 0.951868085,8.57165936 C0.951868085,6.534352 1.74557732,4.66088208 3.06929159,3.18849186 Z M4.41597738,4.53517765 C3.43806512,5.65644655 2.85668128,7.05589837 2.85668128,8.57165936 C2.85668128,10.0355083 3.39764822,11.4288791 4.42053291,12.6022441 C4.74054152,12.969873 4.73196986,13.5194116 4.40053237,13.8765641 L3.13573641,15.2385055 L10.475934,15.2385055 C11.846033,15.2385055 13.1328638,14.920425 14.2450132,14.3642135 L4.41597738,4.53517765 Z M5.58383115,3.46463088 L15.6115419,13.4923417 C17.1369132,12.2724362 18.0951868,10.5181689 18.0951868,8.57165936 C18.0951868,4.89632231 14.6769995,1.90481319 10.475934,1.90481319 C8.61537087,1.90481319 6.90836276,2.49157288 5.58383115,3.46463088 Z" id="path-commentsclosed"></path>
    </defs>
    <g id="SymbolsCommentsDisabled" stroke="none" stroke-width="1" fill="none" fill-rule="evenodd">
        <g id="Icons/comments-disabled">
            <g id="comments-disabled" transform="translate(0.000000, 1.000000)">
                <mask id="mask-commentsclosed" fill="white">
                    <use xlink:href="#path-commentsclosed"></use>
                </mask>
                <use id="CommentsClosedShape" fill="#757575" fill-rule="nonzero" xlink:href="#path-commentsclosed"></use>
                <g id="Tints/Grey-med" mask="url(#mask-commentsclosed)" fill="#797979">
                    <g transform="translate(0.000000, -1.000000)" id="Rectangle-CommentsDisabled">
                        <rect x="0" y="0" width="20" height="20"></rect>
                    </g>
                </g>
            </g>
        </g>
    </g>
</svg>