<svg xmlns="http://www.w3.org/2000/svg" xmlns:xlink="http://www.w3.org/1999/xlink" width="20" height="20" viewBox="0 0 20 20">
    <defs>
        <path id="a" d="M16 9.333V6.667h-2.857a5.263 5.263 0 0 0-.566-1.359L14.6 3.287 12.713 1.4l-2.02 2.021a5.31 5.31 0 0 0-1.36-.565V0H6.667v2.856a5.314 5.314 0 0 0-1.36.567L3.287 1.4 1.4 3.285l2.02 2.022c-.246.421-.44.874-.564 1.36H0v2.666h2.857c.126.484.318.939.566 1.359L1.4 12.715 3.287 14.6l2.021-2.021c.421.248.875.44 1.36.566V16h2.667v-2.856a5.362 5.362 0 0 0 1.36-.567l2.021 2.022 1.885-1.886-2.021-2.022c.248-.42.44-.874.565-1.359H16v.001zm-8 1.334A2.668 2.668 0 0 1 5.333 8 2.67 2.67 0 0 1 8 5.333 2.67 2.67 0 0 1 10.667 8 2.67 2.67 0 0 1 8 10.667z"/>
    </defs>
    <g fill="none" fill-rule="evenodd" transform="translate(2 2)">
        <mask id="b" fill="#fff">
            <use xlink:href="#a"/>
        </mask>
        <use fill="#767676" fill-rule="nonzero" xlink:href="#a"/>
        <g fill="#797979" mask="url(#b)">
            <path d="M-2-2h20v20H-2z"/>
        </g>
    </g>
</svg>
