<?xml version="1.0" encoding="UTF-8"?>
<svg width="20px" height="20px" viewBox="0 0 20 20" version="1.1" xmlns="http://www.w3.org/2000/svg" xmlns:xlink="http://www.w3.org/1999/xlink">
    <defs>
        <path d="M10,2.72727273 C7.99454545,2.72727273 6.36363636,4.35909091 6.36363636,6.36363636 C6.36363636,8.36909091 7.99454545,10 10,10 C12.0054545,10 13.6363636,8.36909091 13.6363636,6.36363636 C13.6363636,4.35909091 12.0054545,2.72727273 10,2.72727273 Z M10,8.18181818 C8.99727273,8.18181818 8.18181818,7.36636364 8.18181818,6.36363636 C8.18181818,5.36181818 8.99727273,4.54545455 10,4.54545455 C11.0027273,4.54545455 11.8181818,5.36181818 11.8181818,6.36363636 C11.8181818,7.36636364 11.0027273,8.18181818 10,8.18181818 Z M19.8336364,5.84090909 C19.6663636,5.60181818 15.6563636,0 10,0 C4.34363636,0 0.333636364,5.60181818 0.166363636,5.84090909 C-0.0554545455,6.15454545 -0.0554545455,6.57363636 0.166363636,6.88727273 C0.333636364,7.12545455 4.34363636,12.7272727 10,12.7272727 C15.6563636,12.7272727 19.6663636,7.12545455 19.8336364,6.88727273 C20.0554545,6.57272727 20.0554545,6.15454545 19.8336364,5.84090909 Z M10,10.9090909 C6.21272727,10.9090909 3.13727273,7.65909091 2.06272727,6.36272727 C3.13454545,5.06636364 6.2,1.81818182 10,1.81818182 C13.7872727,1.81818182 16.8627273,5.06909091 17.9372727,6.36454545 C16.8654545,7.66181818 13.8,10.9090909 10,10.9090909 Z" id="path-views"></path>
    </defs>
    <g id="Symbols1" stroke="none" stroke-width="1" fill="none" fill-rule="evenodd">
        <g id="Icons/Views">
            <g id="views" transform="translate(0.000000, 4.000000)">
                <mask id="mask-22" fill="white">
                    <use xlink:href="#path-views"></use>
                </mask>
                <use id="Views" fill="#767676" fill-rule="nonzero" xlink:href="#path-views"></use>
                <g id="Tints/Grey-med" mask="url(#mask-22)" fill="#797979">
                    <g transform="translate(0.000000, -4.000000)" id="Rectangle-55">
                        <rect x="0" y="0" width="20" height="20"></rect>
                    </g>
                </g>
            </g>
        </g>
    </g>
</svg>