<svg xmlns="http://www.w3.org/2000/svg" xmlns:xlink="http://www.w3.org/1999/xlink" width="20" height="20" viewBox="0 0 20 20">
    <defs>
        <path id="a" d="M10 2.727a3.64 3.64 0 0 0-3.636 3.637A3.64 3.64 0 0 0 10 10a3.64 3.64 0 0 0 3.636-3.636A3.64 3.64 0 0 0 10 2.727zm0 5.455a1.82 1.82 0 0 1-1.818-1.818A1.82 1.82 0 0 1 10 4.545a1.82 1.82 0 0 1 1.818 1.819A1.82 1.82 0 0 1 10 8.182zm9.834-2.341C19.666 5.6 15.656 0 10 0S.334 5.602.166 5.84a.906.906 0 0 0 0 1.047c.168.238 4.178 5.84 9.834 5.84s9.666-5.602 9.834-5.84a.906.906 0 0 0 0-1.046zM10 10.909c-3.787 0-6.863-3.25-7.937-4.546C3.135 5.066 6.2 1.818 10 1.818c3.787 0 6.863 3.251 7.937 4.547C16.865 7.662 13.8 10.909 10 10.909z"/>
    </defs>
    <g fill="none" fill-rule="evenodd" transform="translate(0 4)">
        <mask id="b" fill="#fff">
            <use xlink:href="#a"/>
        </mask>
        <use fill="#767676" fill-rule="nonzero" xlink:href="#a"/>
        <g fill="#797979" mask="url(#b)">
            <path d="M0-4h20v20H0z"/>
        </g>
    </g>
</svg>
