<?xml version="1.0" encoding="UTF-8"?>
<svg width="20px" height="20px" viewBox="0 0 20 20" version="1.1" xmlns="http://www.w3.org/2000/svg" xmlns:xlink="http://www.w3.org/1999/xlink">
    <!-- Generator: Sketch 48.2 (47327) - http://www.bohemiancoding.com/sketch -->
    <title>all-active</title>
    <desc>Created with Sketch.</desc>
    <defs></defs>
    <g id="All/Active" stroke="none" stroke-width="1" fill="none" fill-rule="evenodd">
        <g id="all" fill="#353535">
            <path d="M15,5 C11.945,5 10.461,7.375 9.152,9.47 C7.779,11.666 6.814,13 5,13 C3.613,13 2,11.689 2,10 C2,8.311 3.613,7 5,7 C6.038,7 6.795,7.448 7.512,8.231 L8.649,6.525 C7.72,5.631 6.569,5 5,5 C2.336,5 0,7.336 0,10 C0,12.664 2.336,15 5,15 C8.055,15 9.539,12.625 10.848,10.53 C12.221,8.334 13.186,7 15,7 C16.387,7 18,8.311 18,10 C18,12.074 17.074,13 15,13 C14.012,13 13.277,12.594 12.591,11.879 L11.374,13.501 C12.3,14.382 13.445,15 15,15 C18.178,15 20,13.178 20,10 C20,7.336 17.664,5 15,5"></path>
        </g>
    </g>
</svg>