<svg width="20px" height="20px" viewBox="0 0 20 20" version="1.1" xmlns="http://www.w3.org/2000/svg" xmlns:xlink="http://www.w3.org/1999/xlink">
    <title>Dev Tools</title>
    <g stroke="none" stroke-width="1" fill="#353535" fill-rule="evenodd">
        <g transform="translate(1.000000, 0.000000)">
            <path d="M12.1963,13.708 C12.1963,14.922 10.5303,16.53 9.1973,17.497 C7.9693,16.601 6.1963,14.957 6.1963,13.708 L6.1963,9.708 L12.1963,9.708 L12.1963,13.708 Z M14.1963,13.708 L14.1963,12.708 L18.1963,12.708 L18.1963,10.708 L14.1963,10.708 L14.1963,9.527 L18.3923,8.688 L18.0003,6.727 L13.0973,7.708 L5.2953,7.708 L0.3923,6.727 L0.0003,8.688 L4.1963,9.527 L4.1963,10.708 L0.1963,10.708 L0.1963,12.708 L4.1963,12.708 L4.1963,13.708 C4.1963,13.768 4.2083,13.826 4.2113,13.885 L0.0003,14.727 L0.3923,16.688 L4.8223,15.802 C5.9673,17.798 8.3173,19.334 8.6613,19.552 C8.8253,19.656 9.0103,19.708 9.1963,19.708 C9.3833,19.708 9.5693,19.656 9.7323,19.552 C10.0763,19.334 12.4243,17.794 13.5693,15.802 L18.0003,16.688 L18.3923,14.727 L14.1813,13.885 C14.1843,13.826 14.1963,13.768 14.1963,13.708 Z"></path>
            <path d="M9.1963,2.708 C10.5003,2.708 11.6123,3.543 12.0253,4.708 L6.3683,4.708 C6.7803,3.543 7.8923,2.708 9.1963,2.708 M4.1963,5.708 C4.1963,6.26 4.6443,6.708 5.1963,6.708 L13.1963,6.708 C13.7493,6.708 14.1963,6.26 14.1963,5.708 C14.1963,4.689 13.8873,3.745 13.3633,2.954 L14.9033,1.414 L13.4893,0 L11.9493,1.541 C11.1583,1.017 10.2143,0.708 9.1963,0.708 C8.1793,0.708 7.2343,1.017 6.4443,1.541 L4.9033,0 L3.4893,1.414 L5.0293,2.954 C4.5063,3.745 4.1963,4.689 4.1963,5.708"></path>
        </g>
    </g>
</svg>
