<?xml version="1.0" encoding="UTF-8"?>
<svg width="20px" height="20px" viewBox="0 0 20 20" version="1.1" xmlns="http://www.w3.org/2000/svg" xmlns:xlink="http://www.w3.org/1999/xlink">
    <!-- Generator: Sketch 48.2 (47327) - http://www.bohemiancoding.com/sketch -->
    <title>engagement-active</title>
    <desc>Created with Sketch.</desc>
    <defs></defs>
    <g id="Engagement/Active" stroke="none" stroke-width="1" fill="none" fill-rule="evenodd">
        <g id="engagement" fill="#353535" fill-rule="nonzero">
            <path d="M17,3 L17,3.9975 L3.66666667,6.96166667 L3.66666667,6.33333333 L2,6.33333333 L2,13 L3.66666667,13 L3.66666667,12.3716667 L4.5,12.5575 L4.5,15.5 C4.5,15.8825 4.76083333,16.215 5.13083333,16.3091667 L8.46416667,17.1425 C8.53166667,17.1583333 8.59916667,17.1666667 8.66666667,17.1666667 C8.925,17.1666667 9.1725,17.0458333 9.3325,16.8333333 L11.3916667,14.0891667 L17,15.3341667 L17,16.3333333 L18.6666667,16.3333333 L18.6666667,3 L17,3 Z M8.33166667,15.3908333 L6.16666667,14.8491667 L6.16666667,12.9266667 L9.60583333,13.6916667 L8.33166667,15.3908333 Z M3.66666667,10.6641667 L3.66666667,8.66916667 L17,5.705 L17,13.6283333 L3.66666667,10.6641667 Z" id="Shape"></path>
        </g>
    </g>
</svg>