<svg width="20px" height="20px" viewBox="0 0 20 20" version="1.1" xmlns="http://www.w3.org/2000/svg" xmlns:xlink="http://www.w3.org/1999/xlink">
    <title>Media</title>
    <g stroke="none" stroke-width="1" fill="#353535" fill-rule="evenodd">
        <path d="M15.7142857,4.76171429 C15.7142857,3.71028571 14.8609524,2.85695238 13.8095238,2.85695238 C12.7580952,2.85695238 11.9047619,3.71028571 11.9047619,4.76171429 C11.9047619,5.81314286 12.7580952,6.66647619 13.8095238,6.66647619 C14.8609524,6.66647619 15.7142857,5.81314286 15.7142857,4.76171429"></path>
        <path d="M13.8095238,6.66647619 C12.4028571,6.66647619 11.4266667,7.38552381 11.0904762,8.5712381 L16.5285714,8.5712381 C16.192381,7.38552381 15.2161905,6.66647619 13.8095238,6.66647619"></path>
        <path d="M5.71428571,2.85695238 L3.80952381,2.85695238 L3.80952381,13.3331429 C3.80952381,14.383619 4.66380952,15.2379048 5.71428571,15.2379048 L15.2380952,15.2379048 L15.2380952,13.3331429 L5.71428571,13.3331429 L5.71428571,2.85695238 Z"></path>
        <path d="M1.9047619,6.66647619 L0,6.66647619 L0,17.1426667 C0,18.1931429 0.854285714,19.0474286 1.9047619,19.0474286 L11.4285714,19.0474286 L11.4285714,17.1426667 L1.9047619,17.1426667 L1.9047619,6.66647619 Z"></path>
        <g transform="translate(7.619048, 0.000000)">
            <path d="M1.9047619,9.52361905 L1.9047619,1.90457143 L10.4761905,1.90457143 L10.4771429,9.52361905 L1.9047619,9.52361905 Z M10.4761905,-0.00019047619 L1.9047619,-0.00019047619 C0.854285714,-0.00019047619 0,0.854095238 0,1.90457143 L0,9.52361905 C0,10.5740952 0.854285714,11.428381 1.9047619,11.428381 L10.4761905,11.428381 C11.5266667,11.428381 12.3809524,10.5740952 12.3809524,9.52361905 L12.3809524,1.90457143 C12.3809524,0.854095238 11.5266667,-0.00019047619 10.4761905,-0.00019047619 Z"></path>
        </g>
    </g>
</svg>
