<svg width="20px" height="20px" viewBox="0 0 20 20" version="1.1" xmlns="http://www.w3.org/2000/svg" xmlns:xlink="http://www.w3.org/1999/xlink">
    <title>Users</title>
    <g stroke="none" stroke-width="1" fill="#353535" fill-rule="evenodd">
        <g transform="translate(2.000000, 2.000000)">
            <path d="M8,2 C6.897,2 6,2.896 6,4 C6,5.103 6.897,6 8,6 C9.103,6 10,5.103 10,4 C10,2.896 9.103,2 8,2 M8,8 C5.794,8 4,6.206 4,4 C4,1.794 5.794,0 8,0 C10.206,0 12,1.794 12,4 C12,6.206 10.206,8 8,8"></path>
            <g transform="translate(0.000000, 9.000000)">
                <path d="M2.1587,5 L13.8417,5 C13.2427,3.192 11.0077,2 7.9997,2 C4.9917,2 2.7567,3.192 2.1587,5 Z M15.9997,7 L-0.0003,7 L-0.0003,6 C-0.0003,2.467 3.2897,0 7.9997,0 C12.7107,0 15.9997,2.467 15.9997,6 L15.9997,7 Z"></path>
            </g>
        </g>
    </g>
</svg>
